<svg width="17" height="16" viewBox="0 0 17 16" fill="none" xmlns="http://www.w3.org/2000/svg" style="min-width: 17px;"><path d="M7.04492 1.72058C6.76892 1.28423 6.39249 0.9613 5.95042 0.710352C5.78119 0.614638 5.60009 0.548282 5.42018 0.475893C7.24025 -0.393978 10.0457 -0.200137 11.9021 2.14405C11.893 1.76522 11.8278 1.41775 11.7036 1.0542C12.9096 1.43665 13.9412 2.07569 14.8187 2.9729C15.6969 3.87093 16.3315 4.92579 16.6806 6.13951C17.6846 9.62905 16.2445 13.0916 13.4407 14.8599C10.6491 16.6206 7.32921 16.1694 5.27585 14.679C5.74165 14.5764 6.16869 14.4139 6.56805 14.1047C4.42098 14.0677 2.82194 13.1214 1.70452 11.2884C2.47873 11.2043 2.90775 10.6127 2.89272 10.0087C2.87493 9.3037 2.34824 8.801 1.72231 8.75918C1.15015 8.72057 0.41825 9.16134 0.397689 10.1245C0.270763 9.92343 0.187727 9.71954 0.130788 9.50921C-0.134532 8.52874 -0.000883389 7.61182 0.574832 6.77251C0.877716 6.33094 1.27431 5.99835 1.7492 5.7651C1.85121 5.71483 1.8354 5.68949 1.77253 5.62072C1.63848 5.47434 1.51314 5.31991 1.40954 5.1329C1.55624 5.12084 1.69265 5.11119 1.82868 5.09832C2.51511 5.03437 3.11059 4.7593 3.627 4.29802C3.67959 4.25097 3.66179 4.23287 3.61909 4.19748C3.17346 3.82629 2.66457 3.59786 2.09637 3.51341C1.75236 3.46233 1.40677 3.46515 1.06356 3.53472C1.05288 3.53673 1.04102 3.5311 1.01927 3.52668C1.11892 3.37024 1.24228 3.24275 1.36407 3.11446C2.1284 2.30934 3.05207 1.79055 4.12482 1.55248C4.66257 1.43303 5.20903 1.41212 5.75825 1.45837C6.17027 1.49296 6.57003 1.57982 6.96227 1.70932C6.98877 1.71816 7.01842 1.71575 7.04689 1.71897C7.04887 1.72138 7.05124 1.7242 7.05322 1.72661L7.04492 1.72058ZM14.9796 8.67473C14.997 6.13509 12.9848 4.03621 10.4901 3.96745C7.83573 3.89385 5.72267 6.07516 5.72978 8.68156C5.7369 11.2317 7.74756 13.384 10.3679 13.3788C12.9622 13.3736 14.9832 11.2437 14.9796 8.67473Z" fill="#FA520A"></path></svg>