<svg width="16" height="16" viewBox="0 0 16 16" fill="none" xmlns="http://www.w3.org/2000/svg" style="min-width: 16px;"><path d="M0.000294076 7.92964C0.0188686 6.44385 0.39655 5.06149 1.19287 3.80116C1.28146 3.66054 1.35433 3.45747 1.57674 3.52898C1.7763 3.59333 1.72248 3.79496 1.72915 3.94464C1.84869 6.66455 2.56881 9.19331 4.10716 11.4628C4.44436 11.9604 4.80965 12.4352 5.29831 12.7984C6.00747 13.3256 6.68901 13.3213 7.38341 12.7751C7.89587 12.3723 8.25546 11.8451 8.55979 11.2778C9.12798 10.2177 9.52471 9.08654 9.92954 7.95872C10.272 7.00489 10.6411 6.06346 11.225 5.22403C11.5322 4.78216 11.8861 4.38747 12.3547 4.11147C13.6106 3.37263 15.0104 3.87409 15.5119 5.24072C17.1769 9.77962 14.4203 14.799 9.70331 15.8181C4.71107 16.8969 -0.0430464 13.0315 0.000294076 7.92964Z" fill="#2857AF"></path><path d="M3.60691 3.45466C3.57214 2.7468 3.65168 2.06944 4.06222 1.46359C4.39513 0.972136 4.83901 0.618919 5.40196 0.438735C8.07335 -0.414514 10.5509 -0.0250699 12.8256 1.62327C12.908 1.68286 13.0351 1.72814 13.0308 1.84922C13.0261 1.98936 12.8851 1.98269 12.7894 2.00891C10.9191 2.52133 9.69695 3.75306 8.90301 5.47863C8.43437 6.49728 8.09002 7.5617 7.69282 8.60705C7.46564 9.2048 7.22226 9.79588 6.91697 10.3588C6.52167 11.0881 6.16256 11.112 5.69868 10.4375C4.50706 8.70477 3.89981 6.76708 3.69502 4.69021C3.65453 4.27931 3.63596 3.86651 3.60738 3.45466H3.60691Z" fill="#2857AF"></path></svg>
