<?xml version="1.0" standalone="no"?>
<!DOCTYPE svg PUBLIC "-//W3C//DTD SVG 20010904//EN"
 "http://www.w3.org/TR/2001/REC-SVG-20010904/DTD/svg10.dtd">
<svg version="1.0" xmlns="http://www.w3.org/2000/svg"
 width="166.000000pt" height="167.000000pt" viewBox="0 0 166.000000 167.000000"
 preserveAspectRatio="xMidYMid meet">

<g transform="translate(0.000000,167.000000) scale(0.100000,-0.100000)"
fill="#000000" stroke="none">
<path d="M261 1498 c-1 -40 4 -53 30 -82 16 -19 39 -38 49 -41 10 -3 22 -15
25 -26 4 -11 15 -19 30 -19 28 0 80 -39 53 -40 -9 0 -19 4 -22 9 -8 13 -100
22 -126 13 -22 -8 -21 -9 14 -30 21 -12 42 -22 47 -22 6 0 7 -4 4 -10 -4 -6
10 -10 36 -10 32 0 39 -3 32 -12 -39 -51 -55 -249 -28 -348 8 -30 17 -66 20
-80 10 -38 -35 57 -56 120 -26 80 -22 29 7 -85 l5 -20 -12 20 c-7 11 -19 36
-26 55 -8 25 -12 29 -13 14 0 -12 7 -41 15 -64 21 -60 19 -70 -10 -35 -22 28
-23 28 -18 6 5 -19 -1 -30 -28 -52 -33 -27 -34 -29 -18 -54 14 -24 14 -29 -9
-75 -13 -28 -27 -70 -30 -96 -3 -32 -11 -50 -27 -60 -25 -16 -50 -67 -41 -82
3 -5 -6 -25 -19 -45 -14 -20 -25 -41 -25 -46 0 -6 -5 -11 -10 -11 -13 0 -46
-67 -38 -76 4 -3 16 -3 27 1 16 5 21 15 21 42 0 34 1 35 31 29 17 -3 36 -6 40
-6 5 0 8 -16 6 -35 -4 -32 -2 -35 29 -41 19 -3 34 -10 34 -14 0 -4 16 -11 35
-14 19 -4 35 -11 35 -15 0 -5 10 -12 23 -16 l22 -7 -25 -8 c-14 -4 105 -7 263
-6 197 1 290 4 295 12 16 25 56 32 237 38 105 4 217 11 250 16 83 12 163 33
144 37 -18 4 -32 62 -19 76 4 5 20 7 36 5 26 -3 29 -8 32 -40 2 -25 8 -38 18
-38 17 0 17 17 0 49 -8 14 -12 31 -9 37 3 7 -4 23 -16 35 -11 12 -23 42 -27
66 -4 29 -16 55 -34 73 -28 28 -31 40 -46 160 -7 54 -7 54 -16 23 -10 -37 -33
-43 -54 -15 -12 15 -13 14 -14 -15 0 -18 -5 -33 -11 -33 -16 0 -70 38 -101 72
-29 32 -32 30 -42 -24 -8 -46 -38 -55 -34 -10 2 19 -2 27 -12 27 -9 0 -14 -8
-13 -20 2 -22 -40 -65 -65 -66 -9 0 -28 -2 -42 -4 -14 -2 -40 -2 -58 1 -33 5
-33 6 -16 25 9 10 27 19 38 19 24 1 59 24 49 33 -3 4 -15 7 -25 7 -10 0 -24
11 -30 25 -13 30 -16 30 -48 5 -34 -27 -100 -27 -107 -1 -3 12 -11 17 -20 14
-8 -3 -36 5 -63 17 -44 21 -48 25 -40 46 9 22 8 23 -16 14 -14 -6 -27 -10 -30
-10 -11 0 -2 38 16 68 26 43 25 45 -10 27 l-29 -15 17 30 c9 16 21 30 25 30 5
0 25 18 44 40 30 33 43 40 74 40 21 0 45 7 54 16 23 24 12 27 -30 9 -43 -17
-53 -15 -30 9 17 16 51 21 80 10 12 -5 36 -45 50 -84 9 -26 44 -90 41 -75 -15
67 -28 105 -35 105 -12 0 -51 76 -51 100 0 21 -16 27 -22 9 -6 -19 -46 0 -52
25 -7 27 -54 52 -69 37 -14 -14 19 -51 45 -51 10 0 18 -4 18 -10 0 -15 -33
-12 -58 6 -12 8 -22 23 -22 32 0 10 -10 1 -22 -21 -25 -42 -41 -43 -48 -2 -4
21 -13 31 -37 39 -42 15 -50 24 -27 33 38 13 45 43 11 43 -13 0 -32 7 -43 16
-19 15 -19 16 1 8 11 -4 34 -8 52 -8 17 -1 35 -4 39 -8 8 -9 54 -11 54 -3 0
27 -37 67 -78 85 -66 30 -112 33 -132 7 -15 -18 -17 -18 -23 -3 -5 12 1 19 21
27 15 5 40 16 56 23 l29 14 -44 9 c-24 6 -48 6 -54 1 -13 -11 -72 -10 -120 3
-45 13 -121 84 -128 121 -2 13 -5 2 -6 -24z m289 -187 c-6 -12 -15 -21 -21
-21 -5 0 -2 11 7 25 20 30 31 26 14 -4z m101 -11 c10 -6 19 -15 19 -21 0 -5
-11 -2 -25 7 -14 9 -32 14 -40 10 -9 -3 -13 -2 -10 4 8 13 31 13 56 0z m-87
-89 c-5 -31 -11 -41 -23 -39 -24 5 -24 31 0 62 27 34 31 30 23 -23z m-79 -13
c-4 -24 -8 -62 -9 -86 l0 -43 -18 23 c-32 42 -19 148 19 148 13 0 14 -7 8 -42z
m123 -337 c-18 -21 -34 -37 -36 -36 -1 1 8 20 20 42 13 24 28 39 35 36 9 -4 3
-17 -19 -42z m304 -211 c7 -11 18 -20 25 -20 23 0 13 -38 -18 -72 l-31 -33 7
30 7 30 -24 -22 c-16 -15 -39 -23 -73 -25 -44 -3 -50 -1 -50 16 0 11 -6 21
-13 24 -7 2 -12 -2 -11 -9 1 -8 -3 -27 -9 -42 -17 -40 -15 -46 16 -53 48 -10
54 -13 45 -26 -4 -7 -8 -16 -8 -20 0 -11 -15 -11 -63 3 -39 11 -45 10 -62 -9
-22 -23 -26 -37 -8 -26 6 4 9 3 7 -2 -36 -70 -46 -84 -61 -84 -9 0 -20 -5 -24
-12 -5 -8 -2 -9 10 -5 13 5 17 3 13 -5 -36 -92 -39 -96 -58 -91 -11 3 -16 10
-12 17 4 6 0 6 -9 -2 -12 -10 -40 -10 -134 -2 -66 6 -125 13 -132 15 -26 9 7
148 38 165 11 6 27 24 37 41 10 16 38 42 63 56 25 14 55 35 67 46 l23 20 57
-40 c91 -63 101 -67 128 -49 12 8 30 36 38 61 16 47 40 79 51 68 3 -4 6 -1 6
5 0 18 91 72 122 72 17 0 33 -8 40 -20z m-242 -36 c0 -13 -21 -42 -34 -47 -25
-10 -28 11 -6 33 19 19 40 27 40 14z m589 -38 l22 -24 -40 11 c-31 9 -38 14
-29 24 15 18 21 17 47 -11z m202 -15 c20 -16 22 -21 10 -35 -11 -13 -24 -15
-60 -10 -25 4 -48 8 -50 10 -6 5 53 53 65 54 7 0 22 -8 35 -19z m-177 -61 c22
-17 57 -35 77 -40 22 -6 51 -26 74 -51 33 -37 36 -44 30 -81 -6 -32 -4 -39 6
-33 9 6 11 3 6 -9 -4 -10 -7 -26 -7 -36 0 -33 -50 -42 -217 -42 -87 1 -189 6
-228 11 -38 6 -73 11 -77 11 -15 0 -8 42 14 79 12 21 38 49 57 62 47 31 52 39
46 69 -3 14 -1 31 4 39 7 12 14 10 36 -8 15 -11 37 -21 48 -21 25 0 57 28 57
50 0 39 23 39 74 0z m-1000 -28 c3 -26 0 -42 -8 -45 -13 -5 -56 26 -56 41 0
11 51 55 57 49 2 -2 5 -22 7 -45z m56 17 c-7 -11 -14 -18 -17 -15 -8 8 5 36
17 36 7 0 7 -6 0 -21z m1180 -25 c0 -8 -9 -14 -20 -14 -22 0 -26 10 -8 28 13
13 28 7 28 -14z m-604 -22 c6 -12 14 -19 17 -15 4 3 7 1 7 -5 0 -6 -16 -22
-35 -35 -44 -30 -101 -95 -115 -131 -9 -25 -8 -26 21 -26 19 0 38 8 51 23 l20
22 -5 -22 c-4 -19 -1 -23 19 -23 13 0 24 -5 24 -11 0 -15 -187 -6 -202 9 -5 5
-7 30 -3 57 8 53 62 124 124 163 42 26 61 25 77 -6z m629 -68 c32 -35 32 -54
0 -54 -30 0 -43 24 -25 45 9 10 9 15 1 15 -6 0 -11 5 -11 10 0 16 9 12 35 -16z
m-1330 -21 c-4 -21 -8 -43 -10 -50 -4 -12 -42 -7 -50 7 -8 13 6 40 20 40 7 0
15 9 18 20 10 37 28 22 22 -17z m485 -40 c0 -25 -14 -28 -54 -13 -34 13 -32
22 7 41 35 18 47 11 47 -28z m-21 -54 c18 -51 8 -64 -51 -69 -50 -4 -55 -3
-47 11 4 9 5 19 2 23 -3 3 0 6 7 6 7 0 10 3 7 6 -3 4 -2 15 4 25 14 27 67 26
78 -2z"/>
<path d="M1441 244 c0 -11 3 -14 6 -6 3 7 2 16 -1 19 -3 4 -6 -2 -5 -13z"/>
<path d="M960 1374 c-14 -7 -33 -14 -43 -14 -10 0 -17 -5 -15 -12 8 -22 27
-19 60 11 36 33 36 36 -2 15z"/>
<path d="M338 1333 c7 -3 16 -2 19 1 4 3 -2 6 -13 5 -11 0 -14 -3 -6 -6z"/>
<path d="M888 1276 c-16 -22 -16 -25 -2 -37 13 -10 17 -10 25 2 11 17 12 59 2
59 -5 0 -16 -11 -25 -24z m14 -18 c-7 -7 -12 -8 -12 -2 0 14 12 26 19 19 2 -3
-1 -11 -7 -17z"/>
<path d="M1230 1185 c-8 -2 -32 -6 -52 -10 -27 -4 -36 -10 -35 -24 1 -16 4
-17 46 -4 24 7 60 14 80 14 33 2 34 2 7 6 -22 4 -26 7 -15 14 12 7 12 9 -1 8
-8 -1 -22 -3 -30 -4z"/>
<path d="M936 1135 c-3 -9 -5 -29 -5 -43 1 -20 3 -17 9 13 8 43 7 57 -4 30z"/>
<path d="M1104 1116 c-23 -50 31 -86 130 -86 74 0 111 -11 138 -42 17 -20 18
-20 18 -2 -1 46 -41 64 -144 64 -82 0 -122 20 -128 65 l-3 25 -11 -24z"/>
<path d="M1368 899 c-20 -10 -39 -23 -42 -28 -7 -10 12 -71 26 -86 5 -5 5 2
-1 17 -13 35 -5 56 33 90 36 32 34 32 -16 7z"/>
<path d="M1378 163 c6 -2 18 -2 25 0 6 3 1 5 -13 5 -14 0 -19 -2 -12 -5z"/>
<path d="M1258 133 c7 -3 16 -2 19 1 4 3 -2 6 -13 5 -11 0 -14 -3 -6 -6z"/>
<path d="M958 118 c5 -5 16 -8 23 -6 8 3 3 7 -10 11 -17 4 -21 3 -13 -5z"/>
<path d="M268 113 c7 -3 16 -2 19 1 4 3 -2 6 -13 5 -11 0 -14 -3 -6 -6z"/>
</g>
</svg>
