<svg width="24" height="24" viewBox="0 0 24 24" fill="none" xmlns="http://www.w3.org/2000/svg">
  <path d="M3.80277 6.63266C5.44232 4.42583 8.0628 3 11.0155 3C15.9761 3 20.0001 7.02798 20.0001 12C20.0001 16.972 15.9761 21 11.0155 21C8.0628 21 5.44232 19.5742 3.80277 17.3673C3.47341 16.924 2.84702 16.8316 2.4037 17.161C1.96037 17.4904 1.86799 18.1167 2.19735 18.5601C4.19751 21.2523 7.40259 23 11.0155 23C17.0836 23 22.0001 18.0737 22.0001 12C22.0001 5.92633 17.0836 1 11.0155 1C7.40259 1 4.19751 2.74771 2.19735 5.43993C1.86799 5.88325 1.96037 6.50964 2.4037 6.83901C2.84702 7.16837 3.47341 7.07599 3.80277 6.63266Z" fill="#4182AA"/>
  <path d="M11.6795 7.76624L14.9167 11.2624L14.9202 11.2662C15.2954 11.6715 15.2954 12.3285 14.9202 12.7338L11.6795 16.2338C11.3042 16.639 10.6959 16.639 10.3207 16.2338C9.94543 15.8285 9.94543 15.1715 10.3207 14.7662L11.9561 13L3.00006 13C2.44778 13 2.00006 12.5523 2.00006 12C2.00006 11.4477 2.44778 11 3.00006 11L11.956 11L10.3206 9.23376C9.94541 8.82852 9.94541 8.17148 10.3206 7.76624C10.6959 7.36099 11.3042 7.36099 11.6795 7.76624Z" fill="#4182AA"/>
</svg> 