<?xml version="1.0" standalone="no"?>
<!DOCTYPE svg PUBLIC "-//W3C//DTD SVG 20010904//EN"
 "http://www.w3.org/TR/2001/REC-SVG-20010904/DTD/svg10.dtd">
<svg version="1.0" xmlns="http://www.w3.org/2000/svg"
 width="100.000000pt" height="100.000000pt" viewBox="0 0 100.000000 100.000000"
 preserveAspectRatio="xMidYMid meet">

<g transform="translate(0.000000,100.000000) scale(0.100000,-0.100000)"
fill="#000000" stroke="none">
<path d="M341 944 c-78 -21 -148 -62 -209 -122 -58 -58 -64 -84 -25 -109 21
-14 26 -12 80 40 32 30 83 67 113 83 50 26 65 29 155 29 88 0 107 -3 157 -27
79 -37 142 -98 181 -177 29 -60 32 -74 32 -161 0 -87 -3 -101 -32 -161 -39
-79 -102 -140 -181 -177 -50 -24 -69 -27 -157 -27 -90 0 -105 3 -155 29 -30
16 -81 53 -113 83 -54 52 -59 54 -80 40 -39 -25 -33 -51 25 -109 148 -147 369
-180 550 -81 60 33 157 134 186 194 29 60 52 153 52 209 0 56 -23 149 -52 209
-29 60 -126 161 -186 194 -101 55 -231 71 -341 41z"/>
<path d="M432 678 c-20 -20 -13 -48 24 -94 l36 -44 -197 -2 c-176 -3 -199 -5
-209 -21 -8 -12 -8 -22 0 -35 10 -15 33 -17 209 -20 l197 -2 -36 -44 c-20 -25
-36 -53 -36 -63 0 -24 19 -43 41 -43 18 0 179 171 179 190 0 19 -161 190 -179
190 -9 0 -22 -5 -29 -12z"/>
</g>
</svg>
